<?xml version="1.0" encoding="utf-8"?>
<!-- Generator: Adobe Illustrator 23.0.4, SVG Export Plug-In . SVG Version: 6.00 Build 0)  -->
<svg version="1.1" xmlns="http://www.w3.org/2000/svg" xmlns:xlink="http://www.w3.org/1999/xlink" x="0px" y="0px"
	 viewBox="0 0 2554 2554" style="enable-background:new 0 0 2554 2554;" xml:space="preserve">
<style type="text/css">
	.st0{display:none;}
	.st1{display:inline;}
	.st2{display:inline;stroke:#FFFFFF;stroke-miterlimit:10;}
</style>
<g id="Layer_1" class="st0">
	
		<image style="display:inline;overflow:visible;" width="2554" height="2554" xlink:href="hot-desking-cubicle-workstations-3-pack-powered.jpg" >
	</image>
</g>
<g id="Layer_2">
	<polygon points="146.2,1281.3 425.1,1383.6 448.5,2072.9 176.2,1935.4 	"/>
	<polygon points="318.9,1290.4 189.9,1245.4 180.7,1002.4 404.9,1069.5 408.8,1177.7 308.4,1197.9 	"/>
	<path d="M180.7,958.7l722.6-116.6l5.9,478.3H889c0,0-2-11.8-4.6-12.4c-3.7-0.9-15.4,0.1-20.2,0.3s-15.6,1.2-16.3,2.3
		c-0.7,1.1-1.1,13-1.1,13h-14.6v6.5l2.4,8l-18,4.3c0,0-16.1-0.2-22.4,1.1c-6.3,1.3-11.5,3.9-14.6,7l-116.9,26.9l-30.2-240.2
		l-15.2,0.4l-144.2,27.4l-3.8-122.4L180.7,958.7z"/>
	<polygon points="929.1,1319.4 926.8,1123.6 1222,1208 1222.3,1837.7 1189.7,1825.3 1190.4,1747.8 1179,1730.8 1179,1724.7 
		1190.4,1721.4 1190.4,1631.8 1179.3,1615.5 1179.3,1607.4 1190.7,1604.1 1190.7,1512.9 1179,1496.9 1179.3,1489.1 1190.4,1486.2 
		1190,1408.3 982.2,1342.5 974.7,1317.4 	"/>
</g>
<g id="Layer_3" class="st0">
	<polygon class="st1" points="1088.2,1125.6 967.8,1092.5 966.1,864.9 1213.1,923.1 1213.1,1023 1081.2,1047.3 	"/>
	<path class="st1" d="M966.1,830.6l597.3-96.9l-6.1,432.2c0,0-3.8-5.5-6.1-5.6s-28-0.2-30,0s-5.4,1.6-6.2,5.6s-1,8.1-1,8.1h-13.4
		v5.3l4.5,7.2l-23.8,5.2c0,0-12.4-0.3-15.6,1c-3.3,1.3-6.5,2.4-10.4,5.5l-79.5,18.1L1352,998l-10.4-0.2l-70.4,13l0.3-111.9
		L966.1,830.6z"/>
	<path class="st1" d="M1575.1,1171.1l3.6-177.9l300.4,70l-17.3,577.6l-30.3-10.4l2.3-71l-10.1-14v-7.5l10.8-2.6l2.9-83.1l-11.1-15.3
		v-6.5l11.7-2.9l2.3-83.4l-10.4-14v-7.8l11.1-2.3l2.3-71.3l-32.9-9.1c0,0,11.7-6.8,13.4-8.5c1.6-1.6,2.9-4.2,2.9-6.5
		c0-2.3-4.6-3.9-6.2-4.2c-1.6-0.3-4.2-4.9-10.1-4.9s-53.4,10.4-53.4,10.4l-111.4-30l-17.3-27L1575.1,1171.1z"/>
</g>
<g id="Layer_4" class="st0">
	<polygon class="st1" points="1727.1,989.6 1614.2,964.4 1618.6,754.1 1877.5,803.2 1874.8,894 1720.7,922.6 	"/>
	<path class="st1" d="M1621.1,723.8l498.1-80.5l-15,390.3c0,0-16,1.3-19.2,1.3c-3.3,0-9.1,0.3-9.1,3.9s-0.3,8.8-0.3,8.8l-13.7,0.7
		l0.2,4.9l6.7,6.4l-17.1,4.2c0,0-11.4-0.2-16.9,1s-10.3,3.7-11.2,5.2l-53.3,11.6l-18.6-201.4l-24.1,4.6l3.9-104l-19.5-3
		L1621.1,723.8z"/>
	<path class="st1" d="M2121.5,1042.1l5.9-158.7l301.7,59.6l-7.5,136.5c0,0-9.4-6.5-12.4-6.5s-54.7,8.1-66.8,11.1
		c-12.1,2.9-39.4,9.4-39.4,9.4l-97.4-20.5l-26.7-29l-54.1,2.6L2121.5,1042.1z"/>
	<path class="st2" d="M2370.9,1469.3l2.4-36.9h2.4c0,0,0.4-26.7,0-30.4c-0.4-3.7-7.2-18.9-7.2-18.9l7.4-2.8l4.2-77.5l-10.2-13.5
		v-5.4l12.4-3.3l3.7-78.8l-8.7-10.6v-7.8l9.8-3.3l1.5-39.7c0,0,4.3-21.3,6.1-26.5s3.3-18.2,8.9-20.2s10.9-6.1,13-7.2
		c2.2-1.1,4.6-4.6,4.6-4.6l-21.3,395.1L2370.9,1469.3z"/>
</g>
</svg>
